<svg width="294" height="293" viewBox="0 0 294 293" fill="none" xmlns="http://www.w3.org/2000/svg">
<rect width="294" height="293" rx="22.2603" fill="#161616"/>
<path d="M82.7633 229.733C96.7104 229.733 110.086 224.193 119.948 214.331C129.81 204.469 135.351 191.093 135.351 177.146C135.351 163.199 129.81 149.823 119.948 139.961C110.086 130.099 96.7104 124.558 82.7633 124.558L82.7633 136.254C93.6086 136.254 104.01 140.562 111.679 148.231C119.347 155.899 123.656 166.301 123.656 177.146C123.656 187.991 119.347 198.392 111.679 206.061C104.01 213.73 93.6086 218.038 82.7633 218.038L82.7633 229.733Z" fill="white"/>
<mask id="path-3-inside-1_654_25" fill="white">
<path d="M205.357 154.034C191.41 154.034 178.034 148.493 168.172 138.631C158.31 128.769 152.769 115.393 152.769 101.446C152.769 87.4993 158.31 74.1235 168.172 64.2614C178.034 54.3993 191.41 48.8589 205.357 48.8589L205.357 60.5541C194.511 60.5541 184.11 64.8624 176.442 72.5312C168.773 80.2 164.465 90.6011 164.465 101.446C164.465 112.292 168.773 122.693 176.442 130.362C184.11 138.03 194.512 142.339 205.357 142.339L205.357 154.034Z"/>
</mask>
<path d="M205.357 154.034C191.41 154.034 178.034 148.493 168.172 138.631C158.31 128.769 152.769 115.393 152.769 101.446C152.769 87.4993 158.31 74.1235 168.172 64.2614C178.034 54.3993 191.41 48.8589 205.357 48.8589L205.357 60.5541C194.511 60.5541 184.11 64.8624 176.442 72.5312C168.773 80.2 164.465 90.6011 164.465 101.446C164.465 112.292 168.773 122.693 176.442 130.362C184.11 138.03 194.512 142.339 205.357 142.339L205.357 154.034Z" fill="white" stroke="white" stroke-width="1.33981" mask="url(#path-3-inside-1_654_25)"/>
<path d="M84.0138 106.156C78.4999 103.346 78.0951 95.6214 83.2851 92.251L131.454 60.9695C136.644 57.5991 143.537 61.1109 143.86 67.2907L146.866 124.647C147.19 130.827 140.703 135.04 135.189 132.231L84.0138 106.156Z" fill="white"/>
<path d="M140.801 143.944C140.801 137.756 147.5 133.888 152.86 136.983L227.529 180.093C232.888 183.187 232.888 190.922 227.529 194.016L152.86 237.127C147.5 240.221 140.801 236.353 140.801 230.165L140.801 143.944Z" fill="white"/>
</svg>
